<svg width="52" height="52" viewBox="0 0 52 52" fill="none" xmlns="http://www.w3.org/2000/svg">
<g id="ai" clip-path="url(#clip0_563_4011)">
<g id="Group">
<g id="Group_2">
<path id="Vector" d="M39.7109 8.22656H42.7578V1.52344C42.7578 0.682094 42.0757 0 41.2344 0C40.393 0 39.7109 0.682094 39.7109 1.52344V8.22656Z" fill="#39326C"/>
<path id="Vector_2" d="M33.6172 8.22656H36.6641V1.52344C36.6641 0.682094 35.982 0 35.1406 0C34.2993 0 33.6172 0.682094 33.6172 1.52344V8.22656Z" fill="#39326C"/>
<path id="Vector_3" d="M27.5234 8.22656H30.5703V1.52344C30.5703 0.682094 29.8882 0 29.0469 0C28.2055 0 27.5234 0.682094 27.5234 1.52344V8.22656Z" fill="#39326C"/>
<path id="Vector_4" d="M21.4297 8.22656H24.4766V1.52344C24.4766 0.682094 23.7945 0 22.9531 0C22.1118 0 21.4297 0.682094 21.4297 1.52344V8.22656Z" fill="#5F55AF"/>
<path id="Vector_5" d="M15.3359 8.22656H18.3828V1.52344C18.3828 0.682094 17.7007 0 16.8594 0C16.018 0 15.3359 0.682094 15.3359 1.52344V8.22656Z" fill="#5F55AF"/>
<path id="Vector_6" d="M9.24219 8.22656H12.2891V1.52344C12.2891 0.682094 11.607 0 10.7656 0C9.92428 0 9.24219 0.682094 9.24219 1.52344V8.22656Z" fill="#5F55AF"/>
<path id="Vector_7" d="M41.2344 52C42.0757 52 42.7578 51.3179 42.7578 50.4766V43.7734H39.7109V50.4766C39.7109 51.3179 40.393 52 41.2344 52Z" fill="#39326C"/>
<path id="Vector_8" d="M35.1406 52C35.982 52 36.6641 51.3179 36.6641 50.4766V43.7734H33.6172V50.4766C33.6172 51.3179 34.2993 52 35.1406 52Z" fill="#39326C"/>
<path id="Vector_9" d="M29.0469 52C29.8882 52 30.5703 51.3179 30.5703 50.4766V43.7734H27.5234V50.4766C27.5234 51.3179 28.2055 52 29.0469 52Z" fill="#39326C"/>
<g id="Group_3">
<path id="Vector_10" d="M22.9531 52C23.7945 52 24.4766 51.3179 24.4766 50.4766V43.7734H21.4297V50.4766C21.4297 51.3179 22.1118 52 22.9531 52Z" fill="#5F55AF"/>
<path id="Vector_11" d="M16.8594 52C17.7007 52 18.3828 51.3179 18.3828 50.4766V43.7734H15.3359V50.4766C15.3359 51.3179 16.018 52 16.8594 52Z" fill="#5F55AF"/>
<path id="Vector_12" d="M10.7656 52C11.607 52 12.2891 51.3179 12.2891 50.4766V43.7734H9.24219V50.4766C9.24219 51.3179 9.92428 52 10.7656 52Z" fill="#5F55AF"/>
<path id="Vector_13" d="M1.52344 12.2891H8.22656V9.24219H1.52344C0.682094 9.24219 0 9.92428 0 10.7656C0 11.607 0.682094 12.2891 1.52344 12.2891Z" fill="#5F55AF"/>
<path id="Vector_14" d="M1.52344 18.3828H8.22656V15.3359H1.52344C0.682094 15.3359 0 16.018 0 16.8594C0 17.7007 0.682094 18.3828 1.52344 18.3828Z" fill="#5F55AF"/>
<path id="Vector_15" d="M1.52344 24.4766H8.22656V21.4297H1.52344C0.682094 21.4297 0 22.1118 0 22.9531C0 23.7945 0.682094 24.4766 1.52344 24.4766Z" fill="#5F55AF"/>
<path id="Vector_16" d="M1.52344 30.5703H8.22656V27.5234H1.52344C0.682094 27.5234 0 28.2055 0 29.0469C0 29.8882 0.682094 30.5703 1.52344 30.5703Z" fill="#5F55AF"/>
<path id="Vector_17" d="M1.52344 36.6641H8.22656V33.6172H1.52344C0.682094 33.6172 0 34.2993 0 35.1406C0 35.982 0.682094 36.6641 1.52344 36.6641Z" fill="#5F55AF"/>
<path id="Vector_18" d="M1.52344 42.7578H8.22656V39.7109H1.52344C0.682094 39.7109 0 40.393 0 41.2344C0 42.0757 0.682094 42.7578 1.52344 42.7578Z" fill="#5F55AF"/>
</g>
<path id="Vector_19" d="M43.7734 9.24219V12.2891H50.4766C51.3179 12.2891 52 11.607 52 10.7656C52 9.92428 51.3179 9.24219 50.4766 9.24219H43.7734Z" fill="#39326C"/>
<path id="Vector_20" d="M43.7734 18.3828H50.4766C51.3179 18.3828 52 17.7007 52 16.8594C52 16.018 51.3179 15.3359 50.4766 15.3359H43.7734V18.3828Z" fill="#39326C"/>
<path id="Vector_21" d="M43.7734 24.4766H50.4766C51.3179 24.4766 52 23.7945 52 22.9531C52 22.1118 51.3179 21.4297 50.4766 21.4297H43.7734V24.4766Z" fill="#39326C"/>
<path id="Vector_22" d="M43.7734 30.5703H50.4766C51.3179 30.5703 52 29.8882 52 29.0469C52 28.2055 51.3179 27.5234 50.4766 27.5234H43.7734V30.5703Z" fill="#39326C"/>
<path id="Vector_23" d="M43.7734 36.6641H50.4766C51.3179 36.6641 52 35.982 52 35.1406C52 34.2993 51.3179 33.6172 50.4766 33.6172H43.7734V36.6641Z" fill="#39326C"/>
<path id="Vector_24" d="M43.7734 42.7578H50.4766C51.3179 42.7578 52 42.0757 52 41.2344C52 40.393 51.3179 39.7109 50.4766 39.7109H43.7734V42.7578Z" fill="#39326C"/>
</g>
<g id="Group_4">
<path id="Vector_25" d="M45.2969 5.17969H6.70312C5.86178 5.17969 5.17969 5.86178 5.17969 6.70312V45.2969C5.17969 46.1382 5.86178 46.8203 6.70312 46.8203H45.2969C46.1382 46.8203 46.8203 46.1382 46.8203 45.2969V6.70312C46.8203 5.86178 46.1382 5.17969 45.2969 5.17969Z" fill="#AED0FF"/>
<g id="Group_5">
<path id="Vector_26" d="M46.8203 45.2969V6.70312C46.8203 5.86178 46.1382 5.17969 45.2969 5.17969H26V46.8203H45.2969C46.1382 46.8203 46.8203 46.1382 46.8203 45.2969Z" fill="#7C84E8"/>
</g>
<path id="Vector_27" d="M39.2031 11.2734H12.7969C11.9555 11.2734 11.2734 11.9555 11.2734 12.7969V39.2031C11.2734 40.0445 11.9555 40.7266 12.7969 40.7266H39.2031C40.0445 40.7266 40.7266 40.0445 40.7266 39.2031V12.7969C40.7266 11.9555 40.0445 11.2734 39.2031 11.2734Z" fill="#5F55AF"/>
<g id="Group_6">
<path id="Vector_28" d="M40.7266 39.2031V12.7969C40.7266 11.9555 40.0445 11.2734 39.2031 11.2734H26V40.7266H39.2031C40.0445 40.7266 40.7266 40.0445 40.7266 39.2031Z" fill="#39326C"/>
</g>
</g>
<g id="Group_7">
<path id="Vector_29" d="M25.15 19.5395C25.1447 19.5255 25.1392 19.5117 25.1335 19.4978C24.8548 18.8202 24.2017 18.3828 23.4692 18.3828C23.4686 18.3828 23.468 18.3828 23.4674 18.3828C22.7342 18.3835 22.0811 18.8225 21.8035 19.501C21.7988 19.5125 21.7942 19.5241 21.7899 19.5356L17.2135 31.5515C16.914 32.3378 17.3086 33.218 18.0949 33.5174C18.8812 33.817 19.7614 33.4222 20.0608 32.6359L20.8269 30.6246H26.0767L26.8342 32.6316C27.0644 33.2417 27.644 33.6176 28.2597 33.6176C28.4385 33.6176 28.6203 33.5859 28.7974 33.5191C29.5845 33.222 29.9819 32.3431 29.6847 31.5559L25.15 19.5395ZM21.9873 27.5778L23.4638 23.701L24.9269 27.5778H21.9873Z" fill="#F9F9F9"/>
<g id="Group_8">
<path id="Vector_30" d="M26.8337 32.6316C27.064 33.2417 27.6436 33.6176 28.2593 33.6176C28.438 33.6176 28.6198 33.5859 28.7969 33.5191C29.584 33.222 29.9815 32.3431 29.6843 31.5559L26 21.7931V30.6245H26.0763L26.8337 32.6316Z" fill="#E2DFF4"/>
<path id="Vector_31" d="M33.3633 18.3828C32.5219 18.3828 31.8398 19.0649 31.8398 19.9062V32.0938C31.8398 32.9351 32.5219 33.6172 33.3633 33.6172C34.2046 33.6172 34.8867 32.9351 34.8867 32.0938V19.9062C34.8867 19.0649 34.2046 18.3828 33.3633 18.3828Z" fill="#E2DFF4"/>
</g>
</g>
</g>
</g>
<defs>
<clipPath id="clip0_563_4011">
<rect width="52" height="52" fill="white"/>
</clipPath>
</defs>
</svg>
