<svg width="131" height="55" viewBox="0 0 131 55" fill="none" xmlns="http://www.w3.org/2000/svg">
  <path d="M0 27.5C0 12.3122 11.3939 0 25.449 0H105.551C119.606 0 131 12.3122 131 27.5C131 42.6878 119.606 55 105.551 55H25.449C11.3939 55 0 42.6878 0 27.5Z" fill="#D736FF"/>
  <path d="M76.7643 27.5C76.7643 12.3122 88.1583 0 102.213 0H105.551C119.606 0 131 12.3122 131 27.5C131 42.6878 119.606 55 105.551 55H76.7643V27.5Z" fill="#50AA41"/>
  <path d="M49.6465 0H106.803L80.5191 55H23.3631L49.6465 0Z" fill="#664BFB"/>
  <rect x="8" y="6" width="116" height="43" rx="21.5" fill="white"/>
</svg>