<svg width="52" height="52" viewBox="0 0 52 52" fill="none" xmlns="http://www.w3.org/2000/svg">
<g id="box 1" clip-path="url(#clip0_563_4064)">
<path id="Vector" d="M25.2645 0.167959L1.9794 11.4091C1.68741 11.5501 1.50195 11.8456 1.50195 12.1698V39.8302C1.50195 40.1543 1.68751 40.4499 1.9794 40.5909L25.2645 51.832C25.7286 52.0561 26.2695 52.0561 26.7335 51.832L50.0187 40.5909C50.3106 40.4499 50.4961 40.1543 50.4961 39.8302V12.1698C50.4961 11.8456 50.3105 11.5501 50.0187 11.4091L26.7335 0.167959C26.2695 -0.0559863 25.7286 -0.0559863 25.2645 0.167959Z" fill="#AED0FF"/>
<path id="Vector_2" d="M1.64241 11.7074C1.55365 11.8426 1.50195 12.0017 1.50195 12.1698V39.8301C1.50195 40.1543 1.68751 40.4499 1.9794 40.5908L25.2645 51.8319C25.4965 51.9439 25.7478 51.9999 25.999 51.9999V23.4658L1.64241 11.7074Z" fill="#5F55AF"/>
<path id="Vector_3" d="M50.3566 11.7074C50.4454 11.8426 50.4971 12.0017 50.4971 12.1698V39.8302C50.4971 40.1544 50.3115 40.4499 50.0196 40.5909L26.7345 51.8319C26.5025 51.9439 26.2513 52 26 52V23.4658L50.3566 11.7074Z" fill="#7C84E8"/>
<path id="Vector_4" d="M8.47029 38.3558C8.3474 38.3558 8.22197 38.3286 8.10405 38.2717L4.50904 36.5361C4.08837 36.3332 3.91267 35.8283 4.11559 35.4085C4.3177 34.9886 4.82419 34.8137 5.24324 35.015L8.83825 36.7507C9.25892 36.9536 9.43462 37.4585 9.2317 37.8784C9.08657 38.1801 8.78462 38.3558 8.47029 38.3558Z" fill="#39326C"/>
<path id="Vector_5" d="M11.7799 36.202C11.657 36.202 11.5316 36.1747 11.4137 36.1179L4.51476 32.7876C4.0949 32.5847 3.91839 32.0798 4.12131 31.66C4.32342 31.2409 4.83072 31.0652 5.24896 31.2665L12.1478 34.5968C12.5677 34.7997 12.7442 35.3045 12.5412 35.7244C12.3962 36.0261 12.0943 36.202 11.7799 36.202Z" fill="#AED0FF"/>
<path id="Vector_6" d="M42.1021 15.6785L17.6599 3.87054L11.2168 6.99359L35.7139 18.8198L42.1021 15.6785Z" fill="#39326C"/>
<path id="Vector_7" d="M35.7148 18.8198V27.9815C35.7148 28.2929 36.0404 28.4972 36.3209 28.3618L41.6257 25.8009C41.9177 25.66 42.1031 25.3644 42.1031 25.0402V15.6786L35.7148 18.8198Z" fill="#39326C"/>
</g>
<defs>
<clipPath id="clip0_563_4064">
<rect width="52" height="52" fill="white"/>
</clipPath>
</defs>
</svg>
