<svg width="31" height="31" viewBox="0 0 31 31" fill="none" xmlns="http://www.w3.org/2000/svg">
<g clip-path="url(#clip0_563_3588)">
<path d="M30.0312 15.5C30.0312 16.74 28.5079 17.762 28.2027 18.9052C27.8879 20.087 28.6847 21.7339 28.0865 22.768C27.4786 23.8191 25.6501 23.9451 24.7976 24.7976C23.9451 25.6501 23.8191 27.4786 22.768 28.0865C21.7339 28.6847 20.087 27.8879 18.9052 28.2027C17.762 28.5079 16.74 30.0312 15.5 30.0312C14.26 30.0312 13.238 28.5079 12.0948 28.2027C10.913 27.8879 9.26609 28.6847 8.23195 28.0865C7.18086 27.4786 7.05492 25.6501 6.20242 24.7976C5.34992 23.9451 3.52141 23.8191 2.91352 22.768C2.31531 21.7339 3.11211 20.087 2.79727 18.9052C2.49211 17.762 0.96875 16.74 0.96875 15.5C0.96875 14.26 2.49211 13.238 2.79727 12.0948C3.11211 10.913 2.31531 9.26609 2.91352 8.23195C3.52141 7.18086 5.34992 7.05492 6.20242 6.20242C7.05492 5.34992 7.18086 3.52141 8.23195 2.91352C9.26609 2.31531 10.913 3.11211 12.0948 2.79727C13.238 2.49211 14.26 0.96875 15.5 0.96875C16.74 0.96875 17.762 2.49211 18.9052 2.79727C20.087 3.11211 21.7339 2.31531 22.768 2.91352C23.8191 3.52141 23.9451 5.34992 24.7976 6.20242C25.6501 7.05492 27.4786 7.18086 28.0865 8.23195C28.6847 9.26609 27.8879 10.913 28.2027 12.0948C28.5079 13.238 30.0312 14.26 30.0312 15.5Z" fill="#2568EF"/>
<path d="M19.6988 11.1697L14.1672 16.7013L11.2997 13.8362C10.6773 13.2138 9.66736 13.2138 9.04494 13.8362C8.42252 14.4586 8.42252 15.4685 9.04494 16.0909L13.0677 20.1137C13.6731 20.7192 14.6564 20.7192 15.2619 20.1137L21.9511 13.4245C22.5735 12.802 22.5735 11.7921 21.9511 11.1697C21.3287 10.5473 20.3212 10.5473 19.6988 11.1697Z" fill="#FFFCEE"/>
</g>
<defs>
<clipPath id="clip0_563_3588">
<rect width="31" height="31" fill="white"/>
</clipPath>
</defs>
</svg>
