<svg width="52" height="52" viewBox="0 0 52 52" fill="none" xmlns="http://www.w3.org/2000/svg">
<g id="ai">
<g id="Group">
<g id="Group_2">
<path id="Vector" d="M41.684 25.697V12.6691C38.0922 12.6691 35.1699 15.5913 35.1699 19.1831C35.1699 22.775 38.0922 25.697 41.684 25.697Z" fill="#AED0FF"/>
<path id="Vector_2" d="M48.1977 19.1831C48.1977 15.5913 45.2756 12.6691 41.6836 12.6691V25.697C45.2756 25.697 48.1977 22.7749 48.1977 19.1831Z" fill="#5F55AF"/>
<path id="Vector_3" d="M51.8393 37.3767C51.8393 31.7766 47.2833 27.2205 41.683 27.2205C38.7764 27.2205 36.0762 28.4464 34.1797 30.5316C36.8303 32.6756 38.6295 35.8322 38.9824 39.408H51.8393V37.3767Z" fill="#AED0FF"/>
<path id="Vector_4" d="M17.7612 30.5316C15.8647 28.4465 13.1644 27.2205 10.2578 27.2205C4.65766 27.2205 0.101562 31.7766 0.101562 37.3767V39.408H12.9584C13.3113 35.8322 15.1106 32.6756 17.7612 30.5316Z" fill="#AED0FF"/>
<path id="Vector_5" d="M10.2582 25.697V12.6691C6.6663 12.6691 3.74414 15.5913 3.74414 19.1831C3.74414 22.775 6.6663 25.697 10.2582 25.697Z" fill="#AED0FF"/>
<path id="Vector_6" d="M16.7718 19.1831C16.7718 15.5913 13.8497 12.6691 10.2578 12.6691V25.697C13.8497 25.697 16.7718 22.7749 16.7718 19.1831Z" fill="#5F55AF"/>
<path id="Vector_7" d="M34.1802 30.5316C31.9342 28.7149 29.0775 27.625 25.9707 27.625V42.7334H39.0469V40.7022C39.0469 40.2655 39.0249 39.8338 38.9829 39.4081C38.6301 35.8323 36.8308 32.6756 34.1802 30.5316Z" fill="#39326C"/>
<path id="Vector_8" d="M34.0957 17.4687C34.0957 12.9888 30.4506 9.34375 25.9707 9.34375V25.5938C30.4506 25.5938 34.0957 21.9497 34.0957 17.4687Z" fill="#39326C"/>
<path id="Vector_9" d="M17.7613 30.5316C15.1107 32.6756 13.3114 35.8323 12.9585 39.408C12.9165 39.8338 12.8945 40.2655 12.8945 40.7021V42.7333H25.9707V27.6249C22.864 27.625 20.0073 28.7149 17.7613 30.5316Z" fill="#5F55AF"/>
<path id="Vector_10" d="M25.9707 25.5938V9.34375C21.4908 9.34375 17.8457 12.9888 17.8457 17.4687C17.8457 21.9497 21.4908 25.5938 25.9707 25.5938Z" fill="#5F55AF"/>
</g>
</g>
</g>
</svg>
